<svg width="138" height="152" viewBox="0 0 138 152" fill="none" xmlns="http://www.w3.org/2000/svg">
<path d="M0 24C0 10.7452 10.7452 0 24 0H114C127.255 0 138 10.7452 138 24V128C138 141.255 127.255 152 114 152H24C10.7452 152 0 141.255 0 128V24Z" fill="#02799D"/>
<path d="M53.5263 78.3333C52.9123 78.3333 52.375 78.1 51.9145 77.6333C51.4539 77.1667 51.2237 76.6222 51.2237 76C51.2237 75.3778 51.4539 74.8333 51.9145 74.3667C52.375 73.9 52.9123 73.6667 53.5263 73.6667C54.1404 73.6667 54.6776 73.9 55.1382 74.3667C55.5987 74.8333 55.8289 75.3778 55.8289 76C55.8289 76.6222 55.5987 77.1667 55.1382 77.6333C54.6776 78.1 54.1404 78.3333 53.5263 78.3333ZM85.1053 78.3333C84.4912 78.3333 83.9539 78.1 83.4934 77.6333C83.0329 77.1667 82.8026 76.6222 82.8026 76C82.8026 75.3778 83.0329 74.8333 83.4934 74.3667C83.9539 73.9 84.4912 73.6667 85.1053 73.6667C85.7193 73.6667 86.2566 73.9 86.7171 74.3667C87.1776 74.8333 87.4079 75.3778 87.4079 76C87.4079 76.6222 87.1776 77.1667 86.7171 77.6333C86.2566 78.1 85.7193 78.3333 85.1053 78.3333ZM61.4211 89C60.807 89 60.2697 88.7667 59.8092 88.3C59.3487 87.8333 59.1184 87.2889 59.1184 86.6667C59.1184 86.0444 59.3487 85.5 59.8092 85.0333C60.2697 84.5667 60.807 84.3333 61.4211 84.3333C62.0351 84.3333 62.5724 84.5667 63.0329 85.0333C63.4934 85.5 63.7237 86.0444 63.7237 86.6667C63.7237 87.2889 63.4934 87.8333 63.0329 88.3C62.5724 88.7667 62.0351 89 61.4211 89ZM69.3158 78.3333C68.7018 78.3333 68.1645 78.1 67.7039 77.6333C67.2434 77.1667 67.0132 76.6222 67.0132 76C67.0132 75.3778 67.2434 74.8333 67.7039 74.3667C68.1645 73.9 68.7018 73.6667 69.3158 73.6667C69.9298 73.6667 70.4671 73.9 70.9276 74.3667C71.3882 74.8333 71.6184 75.3778 71.6184 76C71.6184 76.6222 71.3882 77.1667 70.9276 77.6333C70.4671 78.1 69.9298 78.3333 69.3158 78.3333ZM77.2105 89C76.5965 89 76.0592 88.7667 75.5987 88.3C75.1382 87.8333 74.9079 87.2889 74.9079 86.6667C74.9079 86.0444 75.1382 85.5 75.5987 85.0333C76.0592 84.5667 76.5965 84.3333 77.2105 84.3333C77.8246 84.3333 78.3618 84.5667 78.8224 85.0333C79.2829 85.5 79.5132 86.0444 79.5132 86.6667C79.5132 87.2889 79.2829 87.8333 78.8224 88.3C78.3618 88.7667 77.8246 89 77.2105 89ZM56.8158 69C53 69 49.7434 67.6333 47.0461 64.9C44.3487 62.1667 43 58.8667 43 55C43 51.4889 44.239 48.3556 46.7171 45.6C49.1952 42.8444 52.2763 41.3333 55.9605 41.0667C57.364 38.5778 59.2171 36.6111 61.5197 35.1667C63.8224 33.7222 66.4211 33 69.3158 33C73.307 33 76.6513 34.2778 79.3487 36.8333C82.0461 39.3889 83.7018 42.5556 84.3158 46.3333C87.7807 46.5111 90.5329 47.7 92.5724 49.9C94.6118 52.1 95.6316 54.6889 95.6316 57.6667C95.6316 60.7778 94.5461 63.4444 92.375 65.6667C90.2039 67.8889 87.5614 69 84.4474 69H56.8158ZM56.8158 65H84.4474C86.4649 65 88.1754 64.2778 89.5789 62.8333C90.9825 61.3889 91.6842 59.6444 91.6842 57.6C91.6842 55.6 90.9825 53.8889 89.5789 52.4667C88.1754 51.0444 86.4649 50.3333 84.4474 50.3333H80.5V48.3333C80.5 45.1778 79.4145 42.5 77.2434 40.3C75.0724 38.1 72.4298 37 69.3158 37C67.0789 37 65.0285 37.6111 63.1645 38.8333C61.3004 40.0556 59.9298 41.7111 59.0526 43.8L58.5263 45H56.6842C53.9649 45.0889 51.6623 46.1 49.7763 48.0333C47.8904 49.9667 46.9474 52.2889 46.9474 55C46.9474 57.7556 47.9123 60.1111 49.8421 62.0667C51.7719 64.0222 54.0965 65 56.8158 65Z" fill="white"/>
</svg>
